# Blender v3.1.2 OBJ File: 'raw.blend'
# www.blender.org
mtllib room.mtl
o Plane_Plane.001
v -5.000000 0.000000 10.000000
v 5.000000 0.000000 10.000000
v -5.000000 0.000000 -10.000000
v 5.000000 0.000000 -10.000000
v -5.000000 0.501033 -10.000000
v -5.000000 0.501033 10.000000
v 5.000000 0.501033 10.000000
v 5.000000 0.501033 -10.000000
v -5.000000 0.000000 -6.307384
v 5.000000 0.000000 -6.307384
v -5.000000 0.501033 -6.307384
v 5.000000 0.501033 -6.307384
v 12.518776 0.000000 -6.307384
v 12.518776 0.000000 -10.000000
v 12.518776 0.501033 -6.307384
v 12.518776 0.501033 -10.000000
v 5.000000 0.000000 -22.527180
v 5.000000 0.501033 -22.527180
v 12.518776 0.000000 -22.527180
v 12.518776 0.501033 -22.527180
v -5.000000 0.000000 14.446030
v 5.000000 0.000000 14.446030
v -5.000000 0.501033 14.446030
v 5.000000 0.501033 14.446030
v 5.000000 0.000000 -10.300900
v -5.000000 0.000000 -10.300900
v 5.000000 0.501033 -10.300900
v -5.000000 0.501033 -10.300900
v 5.300367 0.501033 10.000000
v 5.300367 0.000000 10.000000
v 5.300367 0.000000 -6.307384
v 5.300367 0.501033 -6.307384
v 5.300649 0.501033 10.000000
v 5.300649 0.000000 10.000000
v 5.300649 0.501033 14.446030
v 5.300649 0.000000 14.446030
v -5.000000 0.000000 14.746541
v 5.000000 0.000000 14.746541
v -5.000000 0.501033 14.746541
v 5.000000 0.501033 14.746541
v -5.300986 0.000000 -6.307384
v -5.300986 0.000000 10.000000
v -5.300986 0.501033 -6.307384
v -5.300986 0.501033 10.000000
v -5.300986 0.501033 -10.000000
v -5.300986 0.000000 -10.000000
v -5.300986 0.000000 14.446030
v -5.300986 0.501033 14.446030
v -5.300986 0.501033 -10.300900
v -5.300986 0.000000 -10.300900
v -5.300986 0.000000 14.746541
v -5.300986 0.501033 14.746541
v 5.300474 0.501033 14.446030
v 5.300474 0.000000 14.446030
v 5.300474 0.501033 14.746541
v 5.300474 0.000000 14.746541
v 5.296333 0.501033 -10.000000
v 5.296333 0.000000 -10.000000
v 5.296333 0.501033 -6.307384
v 5.296333 0.000000 -6.307384
v 5.296333 0.501033 -22.527180
v 5.296333 0.000000 -22.527180
v -5.000000 0.000000 -6.042523
v -5.000000 0.501033 -6.042523
v 5.000000 0.000000 -6.042523
v 5.000000 0.501033 -6.042523
v 5.300367 0.000000 -6.042523
v 5.300367 0.501033 -6.042523
v -5.300986 0.000000 -6.042523
v -5.300986 0.501033 -6.042523
v 5.000000 0.000000 -22.828140
v 5.000000 0.501033 -22.828140
v 12.518776 0.000000 -22.828140
v 12.518776 0.501033 -22.828140
v 5.296333 0.501033 -22.828140
v 5.296333 0.000000 -22.828140
v 12.819778 0.000000 -6.307384
v 12.819778 0.000000 -10.000000
v 12.819778 0.501033 -6.307384
v 12.819778 0.501033 -10.000000
v 12.819778 0.000000 -22.527180
v 12.819778 0.501033 -22.527180
v 12.819778 0.000000 -22.828140
v 12.819778 0.501033 -22.828140
v 12.822830 0.000000 -6.042523
v 12.822830 0.000000 -6.307384
v 12.822830 0.501033 -6.042523
v 12.822830 0.501033 -6.307384
v -5.000000 0.000000 9.695990
v -5.000000 0.501033 9.695990
v -5.300986 0.000000 9.695990
v -5.300986 0.501033 9.695990
v 5.000000 0.000000 9.695990
v 5.000000 0.501033 9.695990
v 5.300367 0.000000 9.695990
v 5.300367 0.501033 9.695990
v 2.258052 0.000000 10.000000
v 2.258052 0.000000 -10.000000
v 2.258052 0.501033 10.000000
v 2.258052 0.501033 -10.000000
v 2.258052 0.501033 -6.307384
v 2.258052 0.000000 -6.307384
v 2.258052 0.000000 14.446030
v 2.258052 0.501033 14.446030
v 2.258052 0.000000 -10.300900
v 2.258052 0.501033 -10.300900
v 2.258052 0.000000 14.746541
v 2.258052 0.501033 14.746541
v 2.258052 0.000000 -6.042523
v 2.258052 0.501033 -6.042523
v 2.258052 0.501033 9.695990
v 2.258052 0.000000 9.695990
v 5.000000 0.000000 6.479449
v 5.000000 0.501033 6.479449
v 5.300367 0.000000 6.479449
v 5.300367 0.501033 6.479449
v -5.000000 0.000000 6.479449
v -5.000000 0.501033 6.479449
v -5.300986 0.000000 6.479449
v -5.300986 0.501033 6.479449
v 2.258052 0.501033 6.479449
v 2.258052 0.000000 6.479449
v -5.000000 12.512451 9.695990
v -5.000000 12.512451 10.000000
v 2.258052 12.512451 -10.000000
v -5.000000 12.512451 -10.000000
v -5.300986 12.512451 -6.307384
v -5.000000 12.512451 -6.307384
v -5.300986 12.512451 -10.000000
v 5.000000 12.512451 -6.042523
v 5.000000 12.512451 -6.307384
v -5.300986 12.512451 14.446030
v -5.000000 12.512451 14.446030
v 12.518776 12.512451 -6.307384
v 12.518776 12.512451 -10.000000
v 5.296333 12.512451 -22.527180
v 12.518776 12.512451 -22.527180
v 5.000000 12.512451 -10.000000
v 5.000000 12.512451 -22.527180
v 2.258052 12.512451 14.446030
v 5.000000 12.512451 14.446030
v -5.300986 12.512451 10.000000
v 5.000000 12.512451 10.000000
v 2.258052 12.512451 -10.300900
v -5.000000 12.512451 -10.300900
v 5.000000 12.512451 -10.300900
v 5.300367 12.512451 -6.042523
v 5.300367 12.512451 -6.307384
v 5.300367 12.512451 10.000000
v 5.300649 12.512451 10.000000
v 5.300649 12.512451 14.446030
v 2.258052 12.512451 14.746541
v 5.000000 12.512451 14.746541
v -5.000000 12.512451 14.746541
v -5.300986 12.512451 9.695990
v -5.300986 12.512451 -10.300900
v -5.300986 12.512451 14.746541
v 5.300474 12.512451 14.746541
v 5.300474 12.512451 14.446030
v 5.296333 12.512451 -10.000000
v 5.296333 12.512451 -22.828140
v -5.000000 12.512451 -6.042523
v 5.000000 12.512451 6.479449
v 5.300367 12.512451 6.479449
v -5.300986 12.512451 -6.042523
v 12.518776 12.512451 -22.828140
v 5.000000 12.512451 -22.828140
v 12.819778 12.512451 -6.307384
v 12.819778 12.512451 -10.000000
v 12.819778 12.512451 -22.527180
v 12.819778 12.512451 -22.828140
v 12.822830 12.512451 -6.042523
v 12.822830 12.512451 -6.307384
v -5.000000 12.512451 6.479449
v -5.300986 12.512451 6.479449
v 5.000000 12.512451 9.695990
v 5.300367 12.512451 9.695990
v 2.258052 12.512451 9.695990
v 2.258052 12.512451 10.000000
vt 0.725805 0.815369
vt 0.725805 1.000000
vt 1.000000 1.000000
vt 1.000000 0.815369
vt 1.000000 1.000000
vt 1.000000 1.000000
vt 1.000000 1.000000
vt 1.000000 1.000000
vt 1.000000 1.000000
vt 0.000000 0.000000
vt 0.000000 0.000000
vt 0.000000 0.000000
vt 0.000000 0.000000
vt 1.000000 0.815369
vt 1.000000 0.815369
vt 1.000000 0.815369
vt 0.725805 0.802126
vt 1.000000 0.802126
vt 1.000000 1.000000
vt 1.000000 1.000000
vt 1.000000 1.000000
vt 1.000000 1.000000
vt 1.000000 0.815369
vt 1.000000 0.815369
vt 1.000000 0.815369
vt 1.000000 0.815369
vt 1.000000 1.000000
vt 1.000000 1.000000
vt 1.000000 1.000000
vt 1.000000 1.000000
vt 1.000000 1.000000
vt 1.000000 1.000000
vt 1.000000 0.815369
vt 1.000000 0.000000
vt 1.000000 0.000000
vt 1.000000 0.000000
vt 1.000000 0.000000
vt 1.000000 0.000000
vt 1.000000 0.000000
vt 1.000000 0.000000
vt 1.000000 0.000000
vt 0.725805 0.000000
vt 0.725805 0.000000
vt 0.725805 1.000000
vt 0.000000 1.000000
vt 0.000000 1.000000
vt 0.725805 1.000000
vt 0.725805 1.000000
vt 1.000000 1.000000
vt 0.000000 0.000000
vt 0.000000 0.000000
vt 0.000000 0.000000
vt 0.000000 0.000000
vt 0.000000 1.000000
vt 1.000000 1.000000
vt 1.000000 1.000000
vt 1.000000 1.000000
vt 1.000000 0.802126
vt 1.000000 0.000000
vt 1.000000 0.000000
vt 1.000000 0.000000
vt 1.000000 0.000000
vt 0.725805 0.000000
vt 1.000000 0.000000
vt 1.000000 0.000000
vt 0.725805 0.000000
vt 1.000000 0.802126
vt 1.000000 0.802126
vt 1.000000 0.802126
vt 1.000000 0.802126
vt 0.000000 0.015201
vt 0.000000 0.000000
vt 0.000000 0.000000
vt 0.000000 0.015201
vt 0.000000 1.000000
vt 0.000000 0.815369
vt 0.000000 0.815369
vt 0.000000 1.000000
vt 0.000000 1.000000
vt 0.000000 1.000000
vt 0.000000 0.815369
vt 0.000000 0.000000
vt 0.000000 0.000000
vt 0.000000 0.015201
vt 1.000000 0.000000
vt 1.000000 0.000000
vt 1.000000 0.000000
vt 1.000000 0.000000
vt 1.000000 1.000000
vt 1.000000 0.000000
vt 1.000000 1.000000
vt 1.000000 1.000000
vt 0.000000 0.802126
vt 0.000000 0.802126
vt 0.000000 0.802126
vt 1.000000 0.176028
vt 1.000000 0.176028
vt 0.000000 1.000000
vt 0.000000 1.000000
vt 1.000000 0.176028
vt 0.725805 0.176028
vt 1.000000 0.815369
vt 1.000000 0.815369
vt 1.000000 1.000000
vt 1.000000 1.000000
vt 1.000000 0.815369
vt 1.000000 1.000000
vt 1.000000 1.000000
vt 1.000000 0.802126
vt 1.000000 0.815369
vt 0.725805 0.015201
vt 1.000000 0.015201
vt 1.000000 0.015201
vt 1.000000 0.015201
vt 0.000000 0.176028
vt 0.000000 0.176028
vt 0.000000 0.176028
vt 0.000000 0.000000
vt 1.000000 1.000000
vt 1.000000 0.000000
vt 1.000000 0.815369
vt 1.000000 0.815369
vt 0.000000 0.000000
vt 0.000000 0.000000
vt 0.000000 0.802126
vt 0.000000 0.815369
vt 0.000000 0.815369
vt 0.000000 0.802126
vt 0.000000 1.000000
vt 0.000000 0.000000
vt 0.725805 1.000000
vt 1.000000 0.815369
vt 1.000000 0.015201
vt 1.000000 0.015201
vt 1.000000 0.000000
vt 0.725805 0.000000
vt 0.725805 0.000000
vt 1.000000 0.000000
vt 1.000000 0.000000
vt 1.000000 0.000000
vt 0.000000 1.000000
vt 1.000000 1.000000
vt 1.000000 1.000000
vt 1.000000 0.815369
vt 1.000000 0.802126
vt 0.000000 0.176028
vt 0.000000 0.176028
vt 1.000000 1.000000
vt 1.000000 1.000000
vt 1.000000 1.000000
vt 1.000000 1.000000
vt 1.000000 1.000000
vt 0.000000 0.015201
vt 0.000000 0.015201
vt 0.725805 0.000000
vt 0.725805 0.015201
vt 1.000000 0.176028
vt 1.000000 0.176028
vt 0.725805 0.815369
vt 0.725805 1.000000
vt 0.725805 0.802126
vt 1.000000 0.802126
vt 1.000000 1.000000
vt 1.000000 1.000000
vt 1.000000 1.000000
vt 1.000000 1.000000
vt 0.725805 0.000000
vt 0.000000 0.000000
vt 0.000000 0.000000
vt 0.725805 0.000000
vt 0.725805 0.176028
vt 1.000000 0.176028
vt 1.000000 0.015201
vt 0.725805 0.015201
vt 0.000000 0.176028
vt 0.000000 0.802126
vt 0.000000 0.815369
vt 0.000000 1.000000
vt 0.000000 0.015201
vn 0.0000 -1.0000 0.0000
vn -1.0000 0.0000 0.0000
vn 1.0000 0.0000 0.0000
vn 0.0000 0.0000 -1.0000
vn 0.0000 0.0000 1.0000
vn 0.0000 1.0000 0.0000
usemtl outside
s off
f 102/1/1 98/2/1 4/3/1 10/4/1
f 4/3/2 8/5/2 18/6/2 17/7/2
f 8/5/3 4/3/3 25/8/3 27/9/3
f 21/10/1 37/11/1 51/12/1 47/13/1
f 10/4/4 12/14/4 32/15/4 31/16/4
f 109/17/1 102/1/1 10/4/1 65/18/1
f 73/19/4 74/20/4 84/21/4 83/22/4
f 59/23/5 60/24/5 13/25/5 15/26/5
f 60/24/1 58/27/1 14/28/1 13/25/1
f 62/29/1 17/7/1 71/30/1 76/31/1
f 13/25/1 14/28/1 78/32/1 77/33/1
f 58/27/1 4/3/1 17/7/1 62/29/1
f 33/34/4 7/35/4 143/36/4 150/37/4
f 22/38/1 2/39/1 34/40/1 36/41/1
f 97/42/1 2/39/1 22/38/1 103/43/1
f 105/44/4 26/45/4 28/46/4 106/47/4
f 27/9/4 106/47/4 144/48/4 146/49/4
f 48/50/2 52/51/2 157/52/2 132/53/2
f 98/2/1 3/54/1 26/45/1 105/44/1
f 72/55/2 18/6/2 139/56/2 167/57/2
f 65/18/1 10/4/1 31/16/1 67/58/1
f 7/35/5 2/39/5 30/59/5 29/60/5
f 34/40/3 33/34/3 35/61/3 36/41/3
f 2/39/4 7/35/4 33/34/4 34/40/4
f 24/62/5 22/38/5 36/41/5 35/61/5
f 107/63/5 38/64/5 40/65/5 108/66/5
f 68/67/5 87/68/5 172/69/5 147/70/5
f 103/43/1 22/38/1 38/64/1 107/63/1
f 91/71/2 42/72/2 44/73/2 92/74/2
f 44/73/2 42/72/2 47/13/2 48/50/2
f 46/75/2 41/76/2 43/77/2 45/78/2
f 48/50/2 47/13/2 51/12/2 52/51/2
f 46/75/2 45/78/2 49/79/2 50/80/2
f 3/54/1 9/81/1 41/76/1 46/75/1
f 1/82/1 21/10/1 47/13/1 42/72/1
f 28/46/4 26/45/4 50/80/4 49/79/4
f 37/11/5 39/83/5 52/51/5 51/12/5
f 26/45/1 3/54/1 46/75/1 50/80/1
f 89/84/1 1/82/1 42/72/1 91/71/1
f 54/85/3 53/86/3 55/87/3 56/88/3
f 40/65/5 38/64/5 56/88/5 55/87/5
f 38/64/1 22/38/1 54/85/1 56/88/1
f 22/38/4 24/62/4 53/86/4 54/85/4
f 14/28/1 58/27/1 62/29/1 19/89/1
f 35/61/3 33/34/3 150/37/3 151/90/3
f 75/91/4 72/55/4 167/57/4 161/92/4
f 10/4/1 4/3/1 58/27/1 60/24/1
f 12/14/5 10/4/5 60/24/5 59/23/5
f 9/81/1 63/93/1 69/94/1 41/76/1
f 41/76/2 69/94/2 70/95/2 43/77/2
f 113/96/1 65/18/1 67/58/1 115/97/1
f 49/79/2 45/78/2 129/98/2 156/99/2
f 115/97/3 67/58/3 68/67/3 116/100/3
f 122/101/1 109/17/1 65/18/1 113/96/1
f 87/68/3 88/102/3 173/103/3 172/69/3
f 76/31/4 75/91/4 74/20/4 73/19/4
f 71/30/4 72/55/4 75/91/4 76/31/4
f 14/28/1 19/89/1 81/104/1 78/32/1
f 19/89/1 62/29/1 76/31/1 73/19/1
f 17/7/2 18/6/2 72/55/2 71/30/2
f 77/33/3 78/32/3 80/105/3 79/106/3
f 80/105/3 78/32/3 81/104/3 82/107/3
f 82/107/3 81/104/3 83/22/3 84/21/3
f 19/89/1 73/19/1 83/22/1 81/104/1
f 15/26/5 13/25/5 77/33/5 79/106/5
f 74/20/4 75/91/4 161/92/4 166/108/4
f 85/109/3 86/110/3 88/102/3 87/68/3
f 31/16/4 32/15/4 88/102/4 86/110/4
f 68/67/5 67/58/5 85/109/5 87/68/5
f 67/58/1 31/16/1 86/110/1 85/109/1
f 97/42/1 112/111/1 93/112/1 2/39/1
f 30/59/3 95/113/3 96/114/3 29/60/3
f 2/39/1 93/112/1 95/113/1 30/59/1
f 117/115/1 89/84/1 91/71/1 119/116/1
f 119/116/2 91/71/2 92/74/2 120/117/2
f 1/82/1 89/84/1 112/111/1 97/42/1
f 44/73/2 48/50/2 132/53/2 142/118/2
f 117/115/1 63/93/1 109/17/1 122/101/1
f 21/10/1 103/43/1 107/63/1 37/11/1
f 18/6/2 8/5/2 138/119/2 139/56/2
f 37/11/5 107/63/5 108/66/5 39/83/5
f 4/3/1 98/2/1 105/44/1 25/8/1
f 7/35/5 29/60/5 149/120/5 143/36/5
f 25/8/4 105/44/4 106/47/4 27/9/4
f 1/82/1 97/42/1 103/43/1 21/10/1
f 63/93/1 9/81/1 102/1/1 109/17/1
f 9/81/1 3/54/1 98/2/1 102/1/1
f 89/84/1 117/115/1 122/101/1 112/111/1
f 15/26/5 79/106/5 168/121/5 134/122/5
f 69/94/2 119/116/2 120/117/2 70/95/2
f 63/93/1 117/115/1 119/116/1 69/94/1
f 112/111/1 122/101/1 113/96/1 93/112/1
f 95/113/3 115/97/3 116/100/3 96/114/3
f 93/112/1 113/96/1 115/97/1 95/113/1
f 154/123/6 133/124/6 132/53/6 157/52/6
f 162/125/6 128/126/6 127/127/6 165/128/6
f 128/126/6 126/129/6 129/98/6 127/127/6
f 133/124/6 124/130/6 142/118/6 132/53/6
f 125/131/6 138/119/6 146/49/6 144/48/6
f 148/132/6 147/70/6 172/69/6 173/103/6
f 176/133/6 143/36/6 149/120/6 177/134/6
f 143/36/6 141/135/6 151/90/6 150/37/6
f 140/136/6 133/124/6 154/123/6 152/137/6
f 141/135/6 153/138/6 158/139/6 159/140/6
f 126/129/6 145/141/6 156/99/6 129/98/6
f 138/119/6 160/142/6 136/143/6 139/56/6
f 139/56/6 136/143/6 161/92/6 167/57/6
f 131/144/6 130/145/6 147/70/6 148/132/6
f 174/146/6 162/125/6 165/128/6 175/147/6
f 136/143/6 137/148/6 166/108/6 161/92/6
f 137/148/6 135/149/6 169/150/6 170/151/6
f 135/149/6 134/122/6 168/121/6 169/150/6
f 166/108/6 137/148/6 170/151/6 171/152/6
f 124/130/6 123/153/6 155/154/6 142/118/6
f 124/130/6 179/155/6 178/156/6 123/153/6
f 141/135/6 140/136/6 152/137/6 153/138/6
f 126/129/6 125/131/6 144/48/6 145/141/6
f 130/145/6 163/157/6 164/158/6 147/70/6
f 123/153/6 174/146/6 175/147/6 155/154/6
f 24/62/5 35/61/5 151/90/5 141/135/5
f 52/51/5 39/83/5 154/123/5 157/52/5
f 39/83/5 108/66/5 152/137/5 154/123/5
f 70/95/2 120/117/2 175/147/2 165/128/2
f 108/66/5 40/65/5 153/138/5 152/137/5
f 120/117/2 92/74/2 155/154/2 175/147/2
f 79/106/3 80/105/3 169/150/3 168/121/3
f 28/46/4 49/79/4 156/99/4 145/141/4
f 106/47/4 28/46/4 145/141/4 144/48/4
f 116/100/3 68/67/3 147/70/3 164/158/3
f 29/60/3 96/114/3 177/134/3 149/120/3
f 80/105/3 82/107/3 170/151/3 169/150/3
f 43/77/2 70/95/2 165/128/2 127/127/2
f 8/5/3 27/9/3 146/49/3 138/119/3
f 55/87/3 53/86/3 159/140/3 158/139/3
f 92/74/2 44/73/2 142/118/2 155/154/2
f 40/65/5 55/87/5 158/139/5 153/138/5
f 82/107/3 84/21/3 171/152/3 170/151/3
f 53/86/4 24/62/4 141/135/4 159/140/4
f 84/21/4 74/20/4 166/108/4 171/152/4
f 45/78/2 43/77/2 127/127/2 129/98/2
usemtl floor
f 101/159/6 12/14/6 8/5/6 100/160/6
f 110/161/6 66/162/6 12/14/6 101/159/6
f 57/163/6 59/23/6 15/26/6 16/164/6
f 57/163/6 16/164/6 20/165/6 61/166/6
f 99/167/6 6/168/6 23/169/6 104/170/6
f 8/5/6 12/14/6 59/23/6 57/163/6
f 121/171/6 114/172/6 66/162/6 110/161/6
f 99/167/6 104/170/6 24/62/6 7/35/6 94/173/6 114/172/6 121/171/6 111/174/6
f 114/172/6 94/173/6 96/114/6 116/100/6
f 118/175/6 121/171/6 110/161/6 64/176/6
f 64/176/6 110/161/6 101/159/6 11/177/6
f 11/177/6 101/159/6 100/160/6 5/178/6
f 90/179/6 111/174/6 121/171/6 118/175/6
usemtl wall
f 118/175/3 64/176/3 162/125/3 174/146/3
f 11/177/3 5/178/3 126/129/3 128/126/3
f 88/102/4 32/15/4 148/132/4 173/103/4
f 104/170/4 23/169/4 133/124/4 140/136/4
f 24/62/4 104/170/4 140/136/4 141/135/4
f 57/163/3 61/166/3 136/143/3 160/142/3
f 20/165/2 16/164/2 135/149/2 137/148/2
f 100/160/5 8/5/5 138/119/5 125/131/5
f 5/178/5 100/160/5 125/131/5 126/129/5
f 6/168/5 99/167/5 179/155/5 124/130/5
f 61/166/5 20/165/5 137/148/5 136/143/5
f 23/169/3 6/168/3 124/130/3 133/124/3
f 12/14/2 66/162/2 130/145/2 131/144/2
f 7/35/2 24/62/2 141/135/2 143/36/2
f 90/179/3 118/175/3 174/146/3 123/153/3
f 64/176/3 11/177/3 128/126/3 162/125/3
f 66/162/2 114/172/2 163/157/2 130/145/2
f 94/173/2 7/35/2 143/36/2 176/133/2
f 99/167/3 111/174/3 178/156/3 179/155/3
f 16/164/2 15/26/2 134/122/2 135/149/2
f 114/172/5 116/100/5 164/158/5 163/157/5
f 111/174/4 90/179/4 123/153/4 178/156/4
f 8/5/5 57/163/5 160/142/5 138/119/5
f 32/15/4 12/14/4 131/144/4 148/132/4
f 96/114/4 94/173/4 176/133/4 177/134/4
